# xmcd CD database file
#
# Track frame offsets:
#	150
#	7497
#	9888
#	14339
#	18478
#	21169
#	23879
#	27250
#	28663
#	30976
#	34043
#	36692
#	38494
#	40154
#	43657
#	45936
#	47088
#	49235
#	50359
#	52375
#	53466
#	55289
#	57170
#	60120
#	63097
#	66170
#	68800
#	70062
#	72827
#	75954
#	78158
#	79983
#	83418
#	89208
#	92188
#	93404
#	95412
#	98174
#	100831
#	102117
#	104665
#	106428
#	107681
#	109465
#	111258
#	114822
#	117123
#	119295
#	122159
#	123558
#	124985
#	126563
#	128053
#	130529
#	134660
#	137887
#	141043
#	142792
#	144833
#	148458
#	150241
#	151424
#	153840
#	155074
#	156401
#	159659
#	161882
#	164685
#	166892
#	170184
#	179120
#	182124
#	193385
#	198094
#	199578
#	204716
#	209581
#	221662
#	222836
#	230412
#	237411
#	239032
#	245811
#	254280
#
# Disc length: 3537 seconds
#
# Revision: 0
# Processed by: cddbd v1.5.2PL0 Copyright (c) Steve Scherf et al.
# Submitted via: CDex 1.51
#
DISCID=c60dcf54
DTITLE=Phil Duncan and Charlie Musselwhite - Mel Bay - Charlie Musselwhite Power Blues Harp
DYEAR=1900
DGENRE=Blues
TTITLE0=Music Intro
TTITLE1=Introduction P.6
TTITLE2=Tongue Blocking P.7
TTITLE3=Lip Blocking 
TTITLE4=Blow Draw Examples P.8
TTITLE5=Air Flow and Holding the Harmonica P. 9 and 10
TTITLE6=Chapter One P.11
TTITLE7=Introduction P.12
TTITLE8=Ex.1
TTITLE9=Ex.2
TTITLE10=Bending P.13
TTITLE11=Ex 3
TTITLE12=Ex.4
TTITLE13=Bending (Blow) P.14
TTITLE14=Ex.7 P.15
TTITLE15=Ex.7 Cut Time
TTITLE16=Introduction P.19
TTITLE17=Ex11
TTITLE18=Introduction P.23
TTITLE19=Ex.17 
TTITLE20=Ex.19
TTITLE21=Final Words P.27
TTITLE22=Ruckus
TTITLE23=Fancy
TTITLE24=Chapter Two P.29
TTITLE25=Introduction Blues Scale P.30
TTITLE26=Introduction Ex. 1-4 P.30 and 31
TTITLE27=Ex.5 Rock I  P.31
TTITLE28=Ex.9 Rock II P.32
TTITLE29=Ex.11 Rock III
TTITLE30=Chords P.33
TTITLE31=Ex.15 Rock IV P.34
TTITLE32=Ex.16 Move Over
TTITLE33=Upper Octave P.36
TTITLE34=Ex.19 and 20
TTITLE35=Ex.23 Rock V P.37
TTITLE36=Ex.27 Rock VI P.38
TTITLE37=Ex.31 Rock VII P.39
TTITLE38=Ex.32 P.40
TTITLE39=Ex.33 Rock VIII
TTITLE40=Tremolo P.41
TTITLE41=Ex.34
TTITLE42=Ex.37 Rock IX P.42
TTITLE43=Ex.37B Octave Playing
TTITLE44=Octave Shuffle P.43
TTITLE45=Walking Boogie P.44
TTITLE46=Chapter THree P.45
TTITLE47=Ex.1
TTITLE48=Ex.4 P.46
TTITLE49=Breath Control P.47
TTITLE50=Ex.6
TTITLE51=Vibrato P.48
TTITLE52=Ex.8
TTITLE53=Chapter Four P.50
TTITLE54=Ex.1
TTITLE55=Ex.8 Rockin' Blues P.52
TTITLE56=Introduction Ex.10 P.53
TTITLE57=Introduction Ex.11
TTITLE58=Ex.12 Rockin' Blues II P.54
TTITLE59=Ex.13
TTITLE60=Ex.15 Holes On Two and Three P.55
TTITLE61=Ex.16 and 17
TTITLE62=Ex.19 P.56
TTITLE63=Ex.21
TTITLE64=Ex.22 Get Down P.57
TTITLE65=Ex.23 Harmonica Shuffle P.58
TTITLE66=Upper Octave and The Blow Bend P.59
TTITLE67=Ex.31 Get Up P.61
TTITLE68=Developing Tone P.62
TTITLE69=Ex.32-36 P.61 and 62
TTITLE70=Message P.62
TTITLE71=Ex.37 Thirty Six or ore P.66
TTITLE72=Chapter Five
TTITLE73=Ex.2 Third Position P.71
TTITLE74=Scarborough Fair P.72
TTITLE75=House of the Rising Sun P.73
TTITLE76=P.74 and Sundown P.75
TTITLE77=Ex.8 Fourth Position P.77
TTITLE78=Ex.10 Poor Wayfaring Stranger P.78
TTITLE79=Ex.11 Coming Home P.79
TTITLE80=Ex.12 Fith Position P.80
TTITLE81=EX.15 St James P.81
TTITLE82=Ex.16 Makin' It P.82
TTITLE83=Conclusion
EXTD=
EXTT0=
EXTT1=
EXTT2=
EXTT3=
EXTT4=
EXTT5=
EXTT6=
EXTT7=
EXTT8=
EXTT9=
EXTT10=
EXTT11=
EXTT12=
EXTT13=
EXTT14=
EXTT15=
EXTT16=
EXTT17=
EXTT18=
EXTT19=
EXTT20=
EXTT21=
EXTT22=
EXTT23=
EXTT24=
EXTT25=
EXTT26=
EXTT27=
EXTT28=
EXTT29=
EXTT30=
EXTT31=
EXTT32=
EXTT33=
EXTT34=
EXTT35=
EXTT36=
EXTT37=
EXTT38=
EXTT39=
EXTT40=
EXTT41=
EXTT42=
EXTT43=
EXTT44=
EXTT45=
EXTT46=
EXTT47=
EXTT48=
EXTT49=
EXTT50=
EXTT51=
EXTT52=
EXTT53=
EXTT54=
EXTT55=
EXTT56=
EXTT57=
EXTT58=
EXTT59=
EXTT60=
EXTT61=
EXTT62=
EXTT63=
EXTT64=
EXTT65=
EXTT66=
EXTT67=
EXTT68=
EXTT69=
EXTT70=
EXTT71=
EXTT72=
EXTT73=
EXTT74=
EXTT75=
EXTT76=
EXTT77=
EXTT78=
EXTT79=
EXTT80=
EXTT81=
EXTT82=
EXTT83=
PLAYORDER=
